<?xml version="1.0" encoding="UTF-8"?>
<svg version="1.1" xmlns="http://www.w3.org/2000/svg" width="1254" height="1254">
<path d="M0 0 C10.74164986 9.48074296 16.71227702 22.10569079 23.34082031 34.57080078 C25.62030769 38.85272189 27.92256335 43.12224644 30.22412109 47.39233398 C31.41299815 49.59831057 32.60081521 51.80485873 33.78759766 54.01196289 C37.98451535 61.81638246 42.21766977 69.60027263 46.46972656 77.37475586 C50.26209374 84.31598618 54.00960888 91.28065257 57.75 98.25 C63.05258849 108.12642002 68.44658976 117.94944541 73.88162231 127.75326538 C79.42999536 137.76805273 84.83748947 147.85231183 90.1975708 157.96890259 C95.09646582 167.20789521 100.15599809 176.3416724 105.34838867 185.41943359 C109.58960227 192.8700186 113.5567937 200.44321855 117.48144531 208.06420898 C121.00114053 214.86383029 124.69874897 221.54166023 128.5 228.1875 C133.38814712 236.73794257 138.03257694 245.38520052 142.55297852 254.13500977 C146.89214251 262.52320473 151.39484641 270.81442125 155.9375 279.09375 C158.03622271 282.91892841 160.11835538 286.75249125 162.1875 290.59375 C167.52351577 300.49832201 172.92078541 310.35507834 178.5 320.125 C183.62803991 329.1172024 188.46427287 338.23508968 193.20410156 347.43701172 C196.63500857 354.08992527 200.14375325 360.69056768 203.75 367.25 C208.75263134 376.35113206 213.63968211 385.50991426 218.5 394.6875 C223.28231493 403.71605412 228.08351569 412.73100769 233 421.6875 C237.91649031 430.64400325 242.71719334 439.65919815 247.5 448.6875 C253.76182678 460.50582844 260.10452696 472.2753201 266.53320312 484.00390625 C269.20395945 488.89021676 271.85071279 493.78952659 274.5 498.6875 C278.65264036 506.36187512 282.81789007 514.02914474 287 521.6875 C294.71881313 535.82746338 302.41541387 549.97945766 310.015625 564.18359375 C310.3533342 564.81467041 310.6910434 565.44574707 311.03898621 566.09594727 C312.6863431 569.17517993 314.33218564 572.25520989 315.97583008 575.33642578 C316.87144653 577.01260986 316.87144653 577.01260986 317.78515625 578.72265625 C318.34259521 579.76615234 318.90003418 580.80964844 319.47436523 581.88476562 C320.74343599 584.2161678 322.05704122 586.50456914 323.4140625 588.78515625 C325.19744615 592.04883618 325.43633809 594.02226004 325 597.6875 C323.4177032 599.2697968 321.81134272 598.82332954 319.61483765 598.83467102 C318.66751266 598.84182632 317.72018768 598.84898163 316.74415588 598.85635376 C315.6959819 598.85904266 314.64780792 598.86173157 313.56787109 598.86450195 C311.92130272 598.87435875 311.92130272 598.87435875 310.24147034 598.88441467 C306.58545876 598.90422243 302.9294886 598.91583321 299.2734375 598.92578125 C298.02433216 598.92985678 296.77522682 598.9339323 295.48826981 598.93813133 C289.54820763 598.9568749 283.60815861 598.97142474 277.66807401 598.9797433 C270.839465 598.98946548 264.01118451 599.01563997 257.18269098 599.05624419 C251.25018489 599.09029103 245.31775705 599.10190944 239.38515091 599.10594749 C236.87438369 599.11079412 234.36361947 599.12235256 231.85291672 599.14098549 C210.30102535 599.2908539 191.7720536 597.91215156 175.3828125 582.2421875 C165.10535656 571.22340687 158.74946643 557.24876365 151.77880859 544.04345703 C149.07707733 538.94628466 146.31939787 533.87997725 143.5625 528.8125 C138.84578356 520.11975028 134.16510643 511.40802345 129.5 502.6875 C123.2343053 490.97561072 116.9243184 479.28828967 110.58837891 467.61425781 C97.86260475 444.16565951 85.20017994 420.68345713 72.61254883 397.16040039 C69.53873965 391.4182904 66.4589084 385.67960016 63.36328125 379.94921875 C57.28862234 368.70354174 51.2791374 357.43108974 45.39550781 346.08422852 C42.03146826 339.61487869 38.57460404 333.20253031 35.0625 326.8125 C30.76453271 318.99264588 26.59560464 311.11516391 22.5 303.1875 C17.99201941 294.46592937 13.38541085 285.80928415 8.65795898 277.20483398 C4.8932748 270.34740191 1.19937925 263.4537795 -2.47854614 256.54956055 C-8.03086577 246.13014853 -13.69382308 235.78358261 -19.5625 225.53808594 C-21.91641752 221.42020148 -24.23069401 217.30181667 -26.375 213.0703125 C-26.72957275 212.37462158 -27.08414551 211.67893066 -27.44946289 210.9621582 C-28.35419347 209.16543974 -29.23869529 207.35857206 -30.12109375 205.55078125 C-32.35691539 202.1435936 -34.41136421 200.5884335 -38 198.6875 C-40.52419498 198.06818289 -40.52419498 198.06818289 -43 198.1875 C-43.804375 198.1771875 -44.60875 198.166875 -45.4375 198.15625 C-49.70294954 199.04055051 -52.74236064 200.94658379 -55.31640625 204.50976562 C-56.6260481 206.70002872 -57.82588314 208.92175913 -59 211.1875 C-59.65379639 212.40614746 -59.65379639 212.40614746 -60.32080078 213.64941406 C-63.07289726 218.80946694 -65.69475904 224.03073413 -68.26953125 229.28125 C-72.11227378 236.84529398 -76.27701307 244.24320769 -80.35595703 251.68164062 C-83.08693132 256.6747733 -85.79289246 261.68139974 -88.5 266.6875 C-93.143021 275.26836032 -97.80401228 283.83915297 -102.48266602 292.40063477 C-105.06209344 297.1237384 -107.63117751 301.85208115 -110.18359375 306.58984375 C-115.46439963 316.3876204 -120.79706033 326.14457799 -126.3125 335.8125 C-131.73635888 345.32471965 -136.90665152 354.9568459 -142.02993774 364.63262939 C-146.89638714 373.81766795 -151.9046599 382.90237929 -157.06640625 391.92578125 C-161.53016385 399.76751758 -165.77826576 407.71400193 -170 415.6875 C-174.71472171 424.59209283 -179.49660989 433.44034177 -184.5 442.1875 C-189.51489012 450.95944843 -194.3255459 459.82611396 -199.0625 468.75 C-199.40226868 469.39005981 -199.74203735 470.03011963 -200.09210205 470.6895752 C-200.77171242 471.97001931 -201.45131857 473.25046566 -202.13092041 474.53091431 C-202.46283386 475.1562204 -202.79474731 475.78152649 -203.13671875 476.42578125 C-203.46589294 477.04601166 -203.79506714 477.66624207 -204.13421631 478.30526733 C-210.91795554 491.07402543 -217.89435269 503.73936726 -224.93115234 516.37011719 C-228.62102601 522.99475459 -232.28415133 529.63403679 -235.94497681 536.27474976 C-236.99452873 538.17758062 -238.0452878 540.07973974 -239.09643555 541.98168945 C-242.0842151 547.38927908 -245.06719821 552.79879172 -248.00390625 558.234375 C-252.13372276 565.85125285 -256.15121289 573.22022046 -262 579.6875 C-262.61230469 580.37972656 -263.22460938 581.07195313 -263.85546875 581.78515625 C-273.67773855 592.27400724 -287.03818851 598.23226563 -301.42058945 598.77962112 C-304.30086182 598.81727974 -307.17954315 598.82260798 -310.06005859 598.81689453 C-311.15187439 598.81864685 -312.24369019 598.82039917 -313.36859131 598.82220459 C-316.96188973 598.82659093 -320.55513861 598.82369767 -324.1484375 598.8203125 C-326.647105 598.82098617 -329.14577243 598.82195672 -331.6444397 598.82321167 C-337.53978068 598.82487237 -343.43510372 598.82138149 -349.33044207 598.8160609 C-354.70989068 598.8117598 -360.08931565 598.81481244 -365.46876276 598.8196975 C-371.29028165 598.82477267 -377.11178772 598.82424844 -382.93330765 598.82131577 C-385.41096628 598.82064668 -387.88862578 598.82147429 -390.36628342 598.82379532 C-393.81631541 598.8263194 -397.26628154 598.82248552 -400.71630859 598.81689453 C-401.74899872 598.81891876 -402.78168884 598.82094299 -403.84567261 598.82302856 C-404.77931641 598.82020874 -405.71296021 598.81738892 -406.67489624 598.81448364 C-407.89876573 598.8139181 -407.89876573 598.8139181 -409.14735985 598.81334114 C-411 598.6875 -411 598.6875 -412 597.6875 C-413.11541611 591.2451901 -409.47790404 586.61204522 -406.3125 581.3125 C-405.10860656 579.24339083 -403.90684683 577.17303897 -402.70703125 575.1015625 C-401.78011475 573.50876465 -401.78011475 573.50876465 -400.83447266 571.88378906 C-397.95756001 566.87120716 -395.22901205 561.78165583 -392.5 556.6875 C-388.27992701 548.84115863 -383.97233351 541.05373316 -379.5625 533.3125 C-374.92306243 525.16546832 -370.42204428 516.95448154 -366 508.6875 C-361.12791977 499.58244381 -356.14056958 490.55585935 -351.03515625 481.57983398 C-346.63423234 473.83381022 -342.30187632 466.05130495 -338 458.25 C-337.66202393 457.63711121 -337.32404785 457.02422241 -336.97583008 456.39276123 C-331.77580721 446.9569149 -326.6302673 437.49227702 -321.51171875 428.01196289 C-318.37930115 422.21533038 -315.21246394 416.44012739 -312 410.6875 C-307.58416136 402.77879062 -303.26401804 394.8199924 -298.95703125 386.8515625 C-295.31964318 380.12196865 -291.66719843 373.40089285 -288 366.6875 C-282.18712467 356.04221126 -276.40911576 345.37821748 -270.63671875 334.7109375 C-269.01939391 331.7233255 -267.40059007 328.73652012 -265.78125 325.75 C-251.8044159 299.97045881 -237.93074683 274.13569542 -224.10592651 248.27435303 C-222.50871125 245.28675105 -220.91078661 242.29952896 -219.3125 239.3125 C-218.99738464 238.72351929 -218.68226929 238.13453857 -218.35760498 237.52770996 C-214.33847651 230.01834687 -210.28368698 222.5300605 -206.1875 215.0625 C-200.62227832 204.91274619 -195.21860165 194.67958757 -189.81530762 184.44311523 C-184.79458185 174.93371618 -179.72480921 165.45625383 -174.546875 156.03125 C-170.12172051 147.95685852 -165.80988614 139.82376612 -161.5 131.6875 C-156.21084719 121.70373238 -150.88088239 111.74626161 -145.45043945 101.83837891 C-141.48792121 94.60189133 -137.57994969 87.33688148 -133.6875 80.0625 C-133.37395569 79.47666138 -133.06041138 78.89082275 -132.73736572 78.28723145 C-129.83842978 72.87010867 -126.94222668 67.45152661 -124.04736328 62.03222656 C-120.2778794 54.97625246 -116.50053568 47.92462998 -112.71191406 40.87890625 C-111.109812 37.89221513 -109.51906126 34.89972671 -107.9296875 31.90625 C-97.2256347 11.88621481 -84.82647585 -5.44406621 -62.1875 -12.6875 C-39.83561939 -18.87725155 -18.23300639 -14.04672829 0 0 Z " fill="#000000" transform="translate(595,292.3125)"/>
<path d="M0 0 C1.31417908 -0.00472824 1.31417908 -0.00472824 2.65490723 -0.009552 C4.07192932 -0.00651566 4.07192932 -0.00651566 5.51757812 -0.00341797 C6.50769897 -0.00437469 7.49781982 -0.00533142 8.51794434 -0.00631714 C10.62280338 -0.0069981 12.72766452 -0.00514968 14.83251953 -0.00097656 C17.98149654 0.00428209 21.13032486 -0.00087649 24.27929688 -0.00732422 C34.04621319 -0.01146678 43.79895993 0.08785992 53.55664062 0.53564453 C54.74042297 0.58590286 54.74042297 0.58590286 55.94812012 0.63717651 C79.56801184 1.87763696 99.61337407 14.25362008 115.1953125 31.54345703 C123.76522318 41.58496854 129.27237108 54.06952257 135.24414062 65.72705078 C138.15191011 71.39172286 141.16344885 76.99044293 144.23632812 82.56689453 C149.44376315 92.03399553 154.50628762 101.57387932 159.54882812 111.12939453 C165.01386239 121.48285229 170.51579106 131.81130066 176.14697266 142.07568359 C180.11804943 149.31938598 184.02805094 156.59496224 187.92382812 163.87939453 C189.2011498 166.26742717 190.47848028 168.65545511 191.75585938 171.04345703 C192.07216309 171.63481445 192.3884668 172.22617187 192.71435547 172.83544922 C196.00249771 178.98094332 199.30553511 185.11838198 202.61132812 191.25439453 C203.1847998 192.31883789 203.75827148 193.38328125 204.34912109 194.47998047 C205.50431618 196.6239029 206.65958943 198.76778321 207.81494141 200.91162109 C210.72753078 206.3168489 213.63807042 211.72318021 216.54882812 217.12939453 C217.71548509 219.29606642 218.88215175 221.46273309 220.04882812 223.62939453 C227.04882812 236.62939453 234.04882812 249.62939453 241.04882812 262.62939453 C241.91495728 264.23790283 241.91495728 264.23790283 242.79858398 265.87890625 C243.96610327 268.04717962 245.13358369 270.21547392 246.30102539 272.38378906 C249.20432983 277.77604481 252.10829262 283.16794388 255.01367188 288.55908203 C261.35744658 300.33221346 267.68749954 312.11255171 273.99832153 323.90338135 C278.45869512 332.23673534 282.93583762 340.56088165 287.42382812 348.87939453 C292.71614997 358.69051017 297.95296146 368.53016564 303.17382812 378.37939453 C307.95900343 387.40620444 312.76673891 396.418039 317.67382812 405.37939453 C318.13321777 406.22147461 318.59260742 407.06355469 319.06591797 407.93115234 C321.20606823 411.85340492 323.35010452 415.77328011 325.51464844 419.68212891 C327.27535519 422.86255123 329.02310956 426.04983454 330.76409912 429.24108887 C331.44691166 430.48717241 332.13420452 431.73081269 332.82623291 432.97180176 C333.79228136 434.70539636 334.74120074 436.44850207 335.68945312 438.19189453 C336.24149414 439.19349609 336.79353516 440.19509766 337.36230469 441.22705078 C338.67341078 444.434135 338.85645473 446.69692924 338.54882812 450.12939453 C336.70562672 451.97259594 333.71668217 451.27643197 331.24755859 451.29052734 C330.58875702 451.29549225 329.92995544 451.30045715 329.25119019 451.30557251 C327.05612149 451.32025343 324.86112552 451.32701288 322.66601562 451.33251953 C321.13396199 451.33827486 319.60190836 451.34403255 318.06985474 451.34979248 C314.84327865 451.36032516 311.61672759 451.36615009 308.39013672 451.36962891 C304.29647072 451.37505844 300.20314675 451.39895535 296.10958672 451.42760086 C292.93497845 451.4464418 289.76044812 451.45144451 286.58578873 451.45296478 C285.07981664 451.45595389 283.57384465 451.46385234 282.06792831 451.47714996 C256.88230364 451.68330136 233.87076072 444.05977972 215.54882812 426.12939453 C203.99098281 414.14911335 197.09556985 398.78122669 189.54882812 384.12939453 C187.98074923 381.11274928 186.40885725 378.09811832 184.83642578 375.08374023 C183.85250452 373.19650695 182.87040919 371.30832058 181.89013672 369.41918945 C178.5879603 363.06744703 175.18804732 356.77592482 171.73632812 350.50439453 C166.99682553 341.88561731 162.42875115 333.18474986 157.92382812 324.44189453 C157.600354 323.81413116 157.27687988 323.1863678 156.94360352 322.5395813 C155.6709617 320.06915661 154.39860102 317.59858744 153.12667847 315.12779236 C148.99111081 307.09811592 144.77459551 299.11185411 140.54882812 291.12939453 C139.92070778 289.94223481 139.29261741 288.75505923 138.66455078 287.56787109 C134.49285884 279.68288018 130.31834625 271.79938616 126.1427002 263.91648865 C123.3968467 258.73217361 120.65382763 253.54636622 117.91210938 248.35986328 C116.39538892 245.49126439 114.87844924 242.62278154 113.36132812 239.75439453 C112.98763092 239.04782715 112.61393372 238.34125977 112.22891235 237.61328125 C106.48829216 226.76224339 100.69832968 215.93864399 94.88671875 205.12548828 C90.25984237 196.49927742 85.73886094 187.82136057 81.24414062 179.12573242 C77.82797322 172.53569013 74.31923595 166.00507982 70.73632812 159.50439453 C65.47895071 149.96169541 60.48125098 140.29653356 55.50964355 130.60327148 C50.82057391 121.46602231 46.02046266 112.40639234 41.05664062 103.41455078 C36.91971968 95.88780782 32.9738265 88.26782372 29.04882812 80.62939453 C24.20091365 71.19507832 19.24708701 61.83260748 14.12280273 52.54467773 C9.14945089 43.48801265 4.42484662 34.30534981 -0.2890625 25.11181641 C-0.88783203 23.94585937 -1.48660156 22.77990234 -2.10351562 21.57861328 C-2.67126709 20.47179199 -3.23901855 19.3649707 -3.82397461 18.22460938 C-5.66422477 14.72413053 -7.61683221 11.30251531 -9.6484375 7.90991211 C-10.45117188 6.12939453 -10.45117188 6.12939453 -10.01367188 3.12939453 C-7.39918192 -0.21715262 -4.03655913 0.00419391 0 0 Z " fill="#000000" transform="translate(755.451171875,439.87060546875)"/>
<path d="M0 0 C16.82641021 17.77033078 23.90025524 39.98127037 23.59375 64.046875 C22.8632972 86.00428603 11.85580886 105.70443902 -3.6875 120.75 C-11.84488911 127.92070069 -20.64208711 132.83124258 -30.6875 136.75 C-31.80125 137.18570313 -32.915 137.62140625 -34.0625 138.0703125 C-50.56880534 143.43486174 -70.48194478 142.74127074 -86.6875 136.75 C-87.57824219 136.46125 -88.46898437 136.1725 -89.38671875 135.875 C-100.72912901 131.88646013 -110.21036479 124.07919219 -118.6875 115.75 C-119.31269531 115.13769531 -119.93789063 114.52539062 -120.58203125 113.89453125 C-136.40072805 97.14742335 -141.36989936 75.28662763 -140.9921875 53 C-140.21090245 31.48560515 -129.42785488 11.55677929 -114.01953125 -3.1953125 C-80.36748775 -32.84518668 -32.22399752 -29.85893348 0 0 Z " fill="#000000" transform="translate(610.6875,719.25)"/>
</svg>
