<svg xmlns="http://www.w3.org/2000/svg" width="1254" height="1254"><path d="M595 292.313c10.742 9.48 16.712 22.105 23.34 34.57 2.28 4.282 4.583 8.552 6.884 12.822q1.783 3.308 3.564 6.62c4.197 7.804 8.43 15.588 12.682 23.362 3.792 6.941 7.54 13.906 11.28 20.875 5.303 9.877 10.697 19.7 16.132 29.504 5.548 10.015 10.955 20.099 16.316 30.215a979 979 0 0 0 15.15 27.45c4.242 7.452 8.209 15.025 12.133 22.646 3.52 6.8 7.218 13.477 11.019 20.123 4.888 8.55 9.533 17.198 14.053 25.948 4.34 8.388 8.842 16.679 13.385 24.958q3.146 5.738 6.25 11.5c5.336 9.905 10.733 19.762 16.312 29.532 5.128 8.992 9.964 18.11 14.704 27.312a845 845 0 0 0 10.546 19.813c5.003 9.1 9.89 18.26 14.75 27.437 4.782 9.029 9.584 18.044 14.5 27 4.916 8.957 9.717 17.972 14.5 27a2832 2832 0 0 0 19.033 35.316c2.671 4.887 5.318 9.786 7.967 14.684a6810 6810 0 0 0 12.5 23c7.719 14.14 15.415 28.292 23.016 42.496l1.023 1.912q2.47 4.62 4.937 9.24c.895 1.677.895 1.677 1.81 3.387l1.688 3.162c1.27 2.332 2.583 4.62 3.94 6.9 1.783 3.264 2.022 5.238 1.586 8.903-1.582 1.582-3.189 1.136-5.385 1.147l-2.87.022-3.177.008-3.327.02c-3.656.02-7.312.031-10.968.041l-3.785.013q-8.91.028-17.82.041-10.243.015-20.485.077c-5.933.034-11.865.045-17.798.05q-3.765.006-7.532.034c-21.552.15-40.08-1.228-56.47-16.898-10.278-11.02-16.634-24.994-23.604-38.199-2.702-5.097-5.46-10.164-8.216-15.231A5007 5007 0 0 1 724.5 795a6633 6633 0 0 0-18.912-35.073 13607 13607 0 0 1-37.975-70.454 5138 5138 0 0 0-9.25-17.211c-6.074-11.246-12.084-22.518-17.967-33.865a949 949 0 0 0-10.333-19.272A1041 1041 0 0 1 617.5 595.5a1161 1161 0 0 0-13.842-25.983c-3.765-6.857-7.459-13.75-11.137-20.655-5.552-10.42-11.215-20.766-17.083-31.011-2.354-4.118-4.669-8.237-6.813-12.468l-1.074-2.108a487 487 0 0 1-2.672-5.412c-2.236-3.407-4.29-4.962-7.879-6.863-2.524-.62-2.524-.62-5-.5l-2.437-.031c-4.266.884-7.305 2.79-9.88 6.353-1.309 2.19-2.509 4.412-3.683 6.678l-1.32 2.462c-2.753 5.16-5.375 10.381-7.95 15.632-3.842 7.564-8.007 14.962-12.086 22.4-2.73 4.993-5.437 10-8.144 15.006a7040 7040 0 0 1-13.983 25.713q-3.871 7.084-7.7 14.19c-5.281 9.797-10.614 19.554-16.13 29.222-5.423 9.512-10.594 19.144-15.717 28.82a962 962 0 0 1-15.036 27.293C433.47 692.08 429.222 700.027 425 708c-4.715 8.905-9.497 17.753-14.5 26.5-5.015 8.772-9.826 17.639-14.562 26.563l-1.03 1.94-2.039 3.84-1.006 1.895-.997 1.88c-6.784 12.769-13.76 25.434-20.797 38.065a5196 5196 0 0 0-11.014 19.904l-3.151 5.707a1966 1966 0 0 0-8.908 16.253c-4.13 7.617-8.147 14.986-13.996 21.453l-1.855 2.098c-9.823 10.489-23.183 16.447-37.566 16.994-2.88.038-5.759.043-8.64.037l-3.308.006q-5.39.004-10.78-.002-3.747 0-7.495.003-8.844.001-17.686-.007-8.07-.006-16.139.003-8.732.007-17.464.002-3.717 0-7.433.002-5.175.003-10.35-.007l-3.13.007-2.829-.009-2.472-.001C184 891 184 891 183 890c-1.115-6.442 2.522-11.075 5.688-16.375q1.805-3.105 3.605-6.21l1.873-3.219c2.876-5.012 5.605-10.102 8.334-15.196 4.22-7.846 8.528-15.634 12.938-23.375 4.639-8.147 9.14-16.358 13.562-24.625 4.872-9.105 9.86-18.132 14.965-27.108 4.4-7.746 8.733-15.528 13.035-23.33l1.024-1.857c5.2-9.436 10.346-18.9 15.464-28.38 3.133-5.797 6.3-11.572 9.512-17.325 4.416-7.909 8.736-15.868 13.043-23.836Q301.499 669.07 307 659a9580 9580 0 0 0 17.363-31.977q2.427-4.48 4.856-8.96c13.977-25.78 27.85-51.615 41.675-77.476l4.793-8.962.955-1.785a2482 2482 0 0 1 12.17-22.465c5.566-10.15 10.97-20.383 16.373-30.62 5.02-9.509 10.09-18.986 15.268-28.411 4.425-8.075 8.737-16.208 13.047-24.344 5.29-9.984 10.62-19.941 16.05-29.85 3.962-7.236 7.87-14.5 11.762-21.775l.95-1.775q4.35-8.126 8.69-16.255 5.654-10.584 11.336-21.154c1.602-2.986 3.193-5.979 4.782-8.972 10.704-20.02 23.104-37.35 45.743-44.594 22.351-6.19 43.954-1.36 62.187 12.688M755.451 439.87l2.655-.009 2.863.006 3-.003q3.158 0 6.315.006c3.149.005 6.297 0 9.446-.007 9.767-.004 19.52.095 29.278.543l2.391.102c23.62 1.24 43.666 13.616 59.247 30.906 8.57 10.042 14.078 22.526 20.05 34.184 2.907 5.664 5.919 11.263 8.991 16.84 5.208 9.467 10.27 19.006 15.313 28.562 5.465 10.353 10.967 20.682 16.598 30.946 3.971 7.244 7.881 14.52 11.777 21.804l4.79 8.956a7274 7274 0 0 0 11.635 21.645l3.466 6.431Q967.634 648.89 972 657l3.5 6.5 21 39 13.965 25.93a14344 14344 0 0 1 18.984 35.344 8549 8549 0 0 0 13.426 24.976c5.292 9.811 10.53 19.65 15.75 29.5 4.785 9.027 9.593 18.039 14.5 27l1.392 2.552c2.14 3.922 4.284 7.842 6.449 11.75q2.639 4.772 5.25 9.56 1.024 1.87 2.061 3.73a582 582 0 0 1 2.864 5.22l1.672 3.036c1.312 3.207 1.495 5.47 1.187 8.902-1.843 1.843-4.832 1.147-7.301 1.161l-1.997.015q-3.293.021-6.585.027l-4.596.017q-4.84.015-9.68.02c-4.093.006-8.187.03-12.28.058-3.175.019-6.35.024-9.524.026q-2.259.004-4.518.024c-25.186.206-48.197-7.418-66.519-25.348-11.558-11.98-18.453-27.348-26-42a7066 7066 0 0 0-4.712-9.046 3304 3304 0 0 1-2.947-5.664c-3.302-6.352-6.702-12.643-10.154-18.915-4.739-8.619-9.307-17.32-13.812-26.063l-.98-1.902-3.817-7.412c-4.136-8.03-8.352-16.016-12.578-23.998l-1.884-3.562q-6.258-11.827-12.522-23.65-4.119-7.777-8.23-15.558l-4.552-8.605-1.132-2.141a5618 5618 0 0 0-17.342-32.488c-4.627-8.626-9.148-17.304-13.643-26a873 873 0 0 0-10.508-19.621c-5.257-9.543-10.255-19.208-15.226-28.901-4.69-9.137-9.49-18.197-14.453-27.189-4.137-7.527-8.083-15.147-12.008-22.785-4.848-9.434-9.802-18.797-14.926-28.085-4.973-9.056-9.698-18.239-14.412-27.433l-1.814-3.533c-.568-1.107-1.136-2.213-1.72-3.354-1.841-3.5-3.794-6.922-5.825-10.314C745 446 745 446 745.437 443c2.615-3.347 5.978-3.125 10.014-3.13"/><path d="M610.688 719.25c16.826 17.77 23.9 39.981 23.593 64.047-.73 21.957-11.738 41.657-27.281 56.703-8.157 7.17-16.955 12.081-27 16l-3.375 1.32c-16.506 5.365-36.42 4.671-52.625-1.32l-2.7-.875c-11.342-3.989-20.823-11.796-29.3-20.125l-1.895-1.855c-15.818-16.748-20.787-38.608-20.41-60.895.782-21.514 11.565-41.443 26.973-56.195 33.652-29.65 81.796-26.664 114.02 3.195"/></svg>